<svg width="725" height="635" viewBox="0 0 725 635" fill="none" xmlns="http://www.w3.org/2000/svg">
<path fill-rule="evenodd" clip-rule="evenodd" d="M412.219 31.9762C412.219 13.5791 395.813 -0.48419 377.632 2.32907L25.4124 56.8309C10.7893 59.0937 0 71.6809 0 86.4781V546.592C0 561.39 10.7893 573.977 25.4124 576.24L404.653 634.923C404.985 634.974 405.321 635 405.657 635V635C409.281 635 412.219 632.062 412.219 628.437V31.9762Z" fill="#181D26"/>
<path fill-rule="evenodd" clip-rule="evenodd" d="M685 59.8857H412.219V81.9192H702.498V551.401H412.219V574.565H685C707.091 574.565 725 556.656 725 534.565V99.8857C725 77.7944 707.091 59.8857 685 59.8857Z" fill="#E4E4E7"/>
<rect x="412" y="81" width="293" height="471" fill="#E4E4E7"/>
</svg>
