<svg width="4384" height="789" viewBox="0 0 4384 789" fill="none" xmlns="http://www.w3.org/2000/svg">
<path fill-rule="evenodd" clip-rule="evenodd" d="M412.219 68.9762C412.219 50.5791 395.813 36.5158 377.632 39.3291L25.4124 93.8309C10.7893 96.0937 0 108.681 0 123.478V583.592C0 598.39 10.7893 610.977 25.4124 613.24L404.653 671.923C404.985 671.974 405.321 672 405.657 672V672C409.281 672 412.219 669.062 412.219 665.437V68.9762Z" fill="#181D26"/>
<path fill-rule="evenodd" clip-rule="evenodd" d="M685 96.8857H412.219V118.919H702.498V588.401H412.219V611.565H685C707.091 611.565 725 593.656 725 571.565V136.886C725 114.794 707.091 96.8857 685 96.8857Z" fill="#E4E4E7"/>
<path d="M977.92 118.97C1023.5 118.97 1065.23 133.094 1096.69 149.144L1066.52 212.702C1039.55 197.294 1006.17 186.38 975.994 186.38C940.042 186.38 924.634 201.146 924.634 224.9C924.634 245.444 936.19 259.568 959.944 278.186L1040.19 339.818C1086.42 375.128 1109.53 410.438 1109.53 461.798C1109.53 543.974 1051.11 587.63 965.722 587.63C908.584 587.63 855.94 568.37 820.63 545.9L850.804 482.984C879.694 499.676 922.708 519.578 966.364 519.578C1014.51 519.578 1037.63 495.824 1037.63 465.65C1037.63 440.612 1022.22 421.994 990.118 396.956L913.72 336.608C875.2 306.434 852.088 273.692 852.088 227.468C852.088 161.342 898.954 118.97 977.92 118.97ZM1173.73 128.6H1236.65V326.336H1237.93C1257.19 292.31 1289.29 271.766 1334.87 271.766C1397.79 271.766 1446.58 305.792 1446.58 395.672V578H1383.66V406.586C1383.66 355.868 1357.98 334.682 1315.61 334.682C1269.39 334.682 1236.65 362.288 1236.65 436.118V578H1173.73V128.6ZM1645.55 587.63C1567.23 587.63 1501.1 528.566 1501.1 429.698C1501.1 330.83 1567.23 271.766 1645.55 271.766C1694.34 271.766 1727.08 292.952 1745.7 325.052H1746.99V281.396H1809.9V578H1746.99V534.344H1745.7C1727.08 566.444 1694.34 587.63 1645.55 587.63ZM1659.03 525.998C1714.24 525.998 1750.2 486.194 1750.2 429.698C1750.2 373.202 1714.24 333.398 1659.03 333.398C1603.82 333.398 1567.87 373.202 1567.87 429.698C1567.87 486.194 1603.82 525.998 1659.03 525.998ZM2049.55 272.408H2054.05V346.238H2044.42C1982.79 346.238 1950.04 375.77 1950.04 446.39V578H1887.13V281.396H1950.04V346.238H1951.33C1965.45 301.94 1999.48 272.408 2049.55 272.408ZM2214.99 271.766C2305.51 271.766 2356.87 334.04 2356.87 429.698V439.97H2127.03C2129.6 492.614 2166.2 527.282 2216.91 527.282C2265.71 527.282 2293.31 495.182 2308.08 475.28L2352.38 517.01C2330.55 547.184 2291.39 587.63 2218.2 587.63C2123.82 587.63 2063.48 524.072 2063.48 430.34C2063.48 340.46 2119.97 271.766 2214.99 271.766ZM2211.14 329.546C2168.76 329.546 2137.95 351.374 2130.24 394.388H2288.82C2286.25 353.3 2256.08 329.546 2211.14 329.546ZM2548.87 281.396V334.682H2488.53V490.046C2488.53 511.232 2497.51 520.862 2519.34 520.862H2534.75V578.642H2505.86C2453.86 578.642 2425.61 551.036 2425.61 502.244V334.682H2372.97V281.396H2425.61V162.626H2488.53V281.396H2548.87ZM2712.62 587.63C2634.3 587.63 2568.17 528.566 2568.17 429.698C2568.17 330.83 2634.3 271.766 2712.62 271.766C2761.42 271.766 2794.16 292.952 2812.78 325.052H2814.06V281.396H2876.98V578H2814.06V534.344H2812.78C2794.16 566.444 2761.42 587.63 2712.62 587.63ZM2726.11 525.998C2781.32 525.998 2817.27 486.194 2817.27 429.698C2817.27 373.202 2781.32 333.398 2726.11 333.398C2670.89 333.398 2634.94 373.202 2634.94 429.698C2634.94 486.194 2670.89 525.998 2726.11 525.998ZM3121.76 587.63C3072.97 587.63 3040.23 566.444 3021.61 534.344H3020.33V578H2957.41V128.6H3020.33V325.052H3021.61C3040.23 292.952 3072.97 271.766 3121.76 271.766C3200.09 271.766 3266.21 330.83 3266.21 429.698C3266.21 528.566 3200.09 587.63 3121.76 587.63ZM3108.28 525.998C3163.49 525.998 3199.45 486.194 3199.45 429.698C3199.45 373.202 3163.49 333.398 3108.28 333.398C3053.07 333.398 3017.12 373.202 3017.12 429.698C3017.12 486.194 3053.07 525.998 3108.28 525.998ZM3327.31 128.6H3390.23V578H3327.31V128.6ZM3602.44 271.766C3692.96 271.766 3744.32 334.04 3744.32 429.698V439.97H3514.48C3517.05 492.614 3553.64 527.282 3604.36 527.282C3653.15 527.282 3680.76 495.182 3695.53 475.28L3739.82 517.01C3718 547.184 3678.83 587.63 3605.65 587.63C3511.27 587.63 3450.92 524.072 3450.92 430.34C3450.92 340.46 3507.42 271.766 3602.44 271.766ZM3598.58 329.546C3556.21 329.546 3525.4 351.374 3517.69 394.388H3676.27C3673.7 353.3 3643.52 329.546 3598.58 329.546Z" fill="#181D26"/>
<rect x="412" y="118" width="293" height="471" fill="#E4E4E7"/>
</svg>
