<?xml version="1.0" standalone="no"?>
<!DOCTYPE svg PUBLIC "-//W3C//DTD SVG 20010904//EN"
 "http://www.w3.org/TR/2001/REC-SVG-20010904/DTD/svg10.dtd">
<svg version="1.0" xmlns="http://www.w3.org/2000/svg"
 width="725.000000pt" height="725.000000pt" viewBox="0 0 725.000000 725.000000"
 preserveAspectRatio="xMidYMid meet">
<metadata>
Created by potrace 1.14, written by Peter Selinger 2001-2017
</metadata>
<g transform="translate(0.000000,725.000000) scale(0.100000,-0.100000)"
fill="#000000" stroke="none">
<path d="M3769 6776 c-2 -2 -29 -7 -60 -10 -31 -4 -67 -9 -80 -12 -13 -2 -85
-13 -159 -24 -74 -11 -146 -22 -160 -25 -36 -6 -202 -32 -290 -46 -41 -6 -84
-13 -95 -15 -11 -2 -40 -6 -64 -9 -24 -2 -51 -6 -60 -9 -9 -3 -38 -7 -66 -11
-27 -3 -106 -15 -175 -26 -69 -11 -143 -22 -165 -25 -22 -4 -49 -8 -60 -10
-11 -3 -38 -7 -60 -9 -22 -3 -47 -7 -55 -10 -8 -2 -40 -7 -70 -10 -30 -3 -62
-8 -70 -10 -8 -2 -35 -7 -60 -10 -55 -8 -89 -13 -160 -25 -30 -5 -72 -12 -92
-15 -21 -3 -55 -7 -75 -10 -21 -3 -63 -10 -93 -15 -30 -5 -68 -12 -85 -14 -80
-11 -224 -33 -265 -41 -14 -3 -41 -7 -60 -9 -48 -7 -101 -15 -200 -31 -47 -8
-107 -17 -135 -20 -27 -4 -57 -8 -65 -10 -8 -2 -35 -7 -60 -10 -25 -3 -101
-15 -169 -26 -68 -11 -137 -21 -155 -24 -17 -2 -44 -6 -61 -9 -16 -3 -50 -8
-75 -11 -104 -14 -196 -81 -242 -174 l-23 -46 0 -2380 0 -2380 22 -45 c58
-114 141 -165 305 -185 29 -4 105 -15 168 -25 63 -10 131 -21 150 -24 19 -3
96 -14 170 -26 74 -12 151 -23 170 -26 19 -3 46 -7 60 -9 14 -2 57 -9 95 -15
39 -6 81 -13 95 -15 14 -2 43 -7 65 -10 22 -4 67 -10 100 -15 33 -5 78 -12
100 -15 51 -8 74 -12 160 -25 39 -7 81 -13 95 -15 14 -2 39 -6 55 -9 17 -2 80
-12 140 -21 61 -9 133 -20 160 -25 28 -5 68 -12 90 -15 39 -6 219 -33 260 -40
11 -2 40 -6 65 -9 25 -3 54 -8 65 -10 48 -9 112 -19 130 -21 11 -1 36 -5 55
-9 19 -3 51 -8 70 -10 39 -5 75 -11 200 -31 47 -8 105 -17 130 -20 25 -3 68
-10 95 -15 28 -5 68 -11 90 -14 22 -3 51 -8 65 -10 14 -3 43 -7 65 -11 22 -3
81 -12 130 -20 50 -8 106 -16 125 -19 34 -4 149 -22 200 -31 99 -18 128 -17
149 4 24 24 23 5 23 336 l1 250 1396 0 c1325 0 1399 1 1453 18 106 34 187 107
241 217 l32 65 2 2255 c2 2246 2 2255 -18 2314 -44 128 -154 234 -269 262 -19
4 -38 9 -42 10 -5 1 -635 2 -1401 3 l-1394 1 0 148 c0 81 -3 165 -7 187 -22
135 -150 242 -292 244 -28 1 -53 -1 -55 -3z"/>
</g>
</svg>
